STARTFONT 2.1
FONT -FontForge-Upheaval TT (BRK)-Book-R-Normal--28-200-100-100-P-154-ISO10646-1
SIZE 20 100 100
FONTBOUNDINGBOX 26 25 -1 -4
COMMENT "Generated by fontforge, http://fontforge.sourceforge.net"
COMMENT "NIGMA FONTS   [e-mail]  kentpw@norwich.net"
STARTPROPERTIES 39
FOUNDRY "FontForge"
FAMILY_NAME "Upheaval TT (BRK)"
WEIGHT_NAME "Book"
SLANT "R"
SETWIDTH_NAME "Normal"
ADD_STYLE_NAME ""
PIXEL_SIZE 28
POINT_SIZE 200
RESOLUTION_X 100
RESOLUTION_Y 100
SPACING "P"
AVERAGE_WIDTH 154
CHARSET_REGISTRY "ISO10646"
CHARSET_ENCODING "1"
FONTNAME_REGISTRY ""
CHARSET_COLLECTIONS "ISO10646-1"
FONT_NAME "UpheavalTT-BRK-"
FACE_NAME "Upheaval TT -BRK-"
COPYRIGHT "NIGMA FONTS   [e-mail]  kentpw@norwich.net"
FONT_VERSION "2.09"
FONT_ASCENT 22
FONT_DESCENT 6
UNDERLINE_POSITION -4
UNDERLINE_THICKNESS 2
X_HEIGHT 13
CAP_HEIGHT 13
RAW_ASCENT 800
RAW_DESCENT 200
NORM_SPACE 10
RELATIVE_WEIGHT 40
RELATIVE_SETWIDTH 50
SUPERSCRIPT_X 0
SUPERSCRIPT_Y 3
SUPERSCRIPT_SIZE 2
SUBSCRIPT_X 0
SUBSCRIPT_Y 3
SUBSCRIPT_SIZE 2
AVG_LOWERCASE_WIDTH 167
AVG_UPPERCASE_WIDTH 170
ENDPROPERTIES
CHARS 228
STARTCHAR space
ENCODING 32
SWIDTH 350 0
DWIDTH 10 0
BBX 1 1 0 0
BITMAP
00
ENDCHAR
STARTCHAR exclam
ENCODING 33
SWIDTH 250 0
DWIDTH 7 0
BBX 6 14 0 0
BITMAP
FC
FC
FC
FC
FC
FC
FC
FC
FC
FC
00
FC
FC
FC
ENDCHAR
STARTCHAR quotedbl
ENCODING 34
SWIDTH 400 0
DWIDTH 11 0
BBX 10 3 0 11
BITMAP
F3C0
F3C0
F3C0
ENDCHAR
STARTCHAR numbersign
ENCODING 35
SWIDTH 600 0
DWIDTH 17 0
BBX 15 14 0 0
BITMAP
7EFC
7EFC
7EFC
FFFE
FFFE
FFFE
7EFC
7EFC
FFFE
FFFE
FFFE
7EFC
7EFC
7EFC
ENDCHAR
STARTCHAR dollar
ENCODING 36
SWIDTH 600 0
DWIDTH 17 0
BBX 16 16 0 -1
BITMAP
03C0
7FFF
FFFF
FFFF
FC00
FC00
FFFE
FFFF
7FFF
003F
003F
003F
FFFF
FFFF
FFFE
03C0
ENDCHAR
STARTCHAR percent
ENCODING 37
SWIDTH 650 0
DWIDTH 18 0
BBX 17 14 0 0
BITMAP
701F80
FC3F80
FCFF80
FCFF00
71FE00
71FE00
03F800
0FE000
3FC700
3FC700
7F9F80
FF9F80
FE1F80
FC0700
ENDCHAR
STARTCHAR ampersand
ENCODING 38
SWIDTH 600 0
DWIDTH 17 0
BBX 16 16 0 -1
BITMAP
03C0
7FFF
FFFF
FFFF
FC00
FC00
FFC0
FFC0
FFC0
FC00
FC00
FC00
FFFF
FFFF
7FFF
03C0
ENDCHAR
STARTCHAR quotesingle
ENCODING 39
SWIDTH 200 0
DWIDTH 6 0
BBX 4 3 0 11
BITMAP
F0
F0
F0
ENDCHAR
STARTCHAR parenleft
ENCODING 40
SWIDTH 400 0
DWIDTH 11 0
BBX 10 14 0 0
BITMAP
7FC0
FFC0
FFC0
FC00
FC00
FC00
FC00
FC00
FC00
FC00
FC00
FFC0
FFC0
7FC0
ENDCHAR
STARTCHAR parenright
ENCODING 41
SWIDTH 400 0
DWIDTH 11 0
BBX 10 14 0 0
BITMAP
FF80
FFC0
FFC0
0FC0
0FC0
0FC0
0FC0
0FC0
0FC0
0FC0
0FC0
FFC0
FFC0
FF80
ENDCHAR
STARTCHAR asterisk
ENCODING 42
SWIDTH 500 0
DWIDTH 14 0
BBX 13 10 0 4
BITMAP
0200
0200
EF38
FFF8
FFF8
7FE0
1FC0
7DE0
7DE0
70E0
ENDCHAR
STARTCHAR plus
ENCODING 43
SWIDTH 600 0
DWIDTH 17 0
BBX 16 8 0 3
BITMAP
03C0
03C0
FFFF
FFFF
FFFF
03C0
03C0
03C0
ENDCHAR
STARTCHAR comma
ENCODING 44
SWIDTH 200 0
DWIDTH 6 0
BBX 4 6 0 -3
BITMAP
F0
F0
F0
F0
F0
F0
ENDCHAR
STARTCHAR minus
ENCODING 45
SWIDTH 600 0
DWIDTH 17 0
BBX 15 3 0 6
BITMAP
FFFE
FFFE
FFFE
ENDCHAR
STARTCHAR period
ENCODING 46
SWIDTH 200 0
DWIDTH 6 0
BBX 4 3 0 0
BITMAP
F0
F0
F0
ENDCHAR
STARTCHAR slash
ENCODING 47
SWIDTH 650 0
DWIDTH 18 0
BBX 17 14 0 0
BITMAP
001F80
003F80
003F80
00FE00
01FC00
01FC00
03F800
0FE000
1FC000
1FC000
7F0000
FE0000
FE0000
FC0000
ENDCHAR
STARTCHAR zero
ENCODING 48
SWIDTH 600 0
DWIDTH 17 0
BBX 16 14 0 0
BITMAP
7FFE
FFFF
FFFF
FC3F
FC3F
FC3F
FC3F
FC3F
FC3F
FC3F
FC3F
FFFF
FFFF
7FFE
ENDCHAR
STARTCHAR one
ENCODING 49
SWIDTH 250 0
DWIDTH 7 0
BBX 6 14 0 0
BITMAP
FC
FC
FC
FC
FC
FC
FC
FC
FC
FC
FC
FC
FC
FC
ENDCHAR
STARTCHAR two
ENCODING 50
SWIDTH 600 0
DWIDTH 17 0
BBX 16 14 0 0
BITMAP
FFFE
FFFF
FFFF
003F
003F
7FFF
FFFF
FFFE
FC00
FC00
FC00
FFFF
FFFF
FFFF
ENDCHAR
STARTCHAR three
ENCODING 51
SWIDTH 600 0
DWIDTH 17 0
BBX 16 14 0 0
BITMAP
FFFE
FFFF
FFFF
003F
003F
03FE
03FE
03FE
003F
003F
003F
FFFF
FFFF
FFFE
ENDCHAR
STARTCHAR four
ENCODING 52
SWIDTH 600 0
DWIDTH 17 0
BBX 16 14 0 0
BITMAP
FC3F
FC3F
FC3F
FC3F
FC3F
FFFF
FFFF
7FFF
003F
003F
003F
003F
003F
003F
ENDCHAR
STARTCHAR five
ENCODING 53
SWIDTH 600 0
DWIDTH 17 0
BBX 16 14 0 0
BITMAP
FFFF
FFFF
FFFF
FC00
FC00
FFFE
FFFF
7FFF
003F
003F
003F
FFFF
FFFF
FFFE
ENDCHAR
STARTCHAR six
ENCODING 54
SWIDTH 600 0
DWIDTH 17 0
BBX 16 14 0 0
BITMAP
7FFF
FFFF
FFFF
FC00
FC00
FFFE
FFFF
FFFF
FC3F
FC3F
FC3F
FFFF
FFFF
7FFE
ENDCHAR
STARTCHAR seven
ENCODING 55
SWIDTH 600 0
DWIDTH 17 0
BBX 15 14 0 0
BITMAP
FFFE
FFFE
FFFE
00FE
01FC
01FC
03F8
0FE0
1FC0
1FC0
7F00
FE00
FE00
FC00
ENDCHAR
STARTCHAR eight
ENCODING 56
SWIDTH 600 0
DWIDTH 17 0
BBX 16 14 0 0
BITMAP
7FFE
7FFE
FFFF
FC3F
FC3F
FC3F
7FFE
7FFE
FC3F
FC3F
FC3F
FFFF
FFFF
7FFE
ENDCHAR
STARTCHAR nine
ENCODING 57
SWIDTH 600 0
DWIDTH 17 0
BBX 16 14 0 0
BITMAP
7FFE
FFFF
FFFF
FC3F
FC3F
FFFF
FFFF
7FFF
003F
003F
003F
003F
003F
003F
ENDCHAR
STARTCHAR colon
ENCODING 58
SWIDTH 200 0
DWIDTH 6 0
BBX 4 14 0 0
BITMAP
F0
F0
F0
00
00
00
00
00
00
00
00
F0
F0
F0
ENDCHAR
STARTCHAR semicolon
ENCODING 59
SWIDTH 200 0
DWIDTH 6 0
BBX 4 17 0 -3
BITMAP
F0
F0
F0
00
00
00
00
00
00
00
00
F0
F0
F0
F0
F0
F0
ENDCHAR
STARTCHAR less
ENCODING 60
SWIDTH 450 0
DWIDTH 13 0
BBX 12 14 -1 0
BITMAP
03F0
07F0
07F0
1FE0
3F80
3F80
FF00
FF00
3F80
3F80
1FE0
07F0
07F0
03F0
ENDCHAR
STARTCHAR equal
ENCODING 61
SWIDTH 600 0
DWIDTH 17 0
BBX 15 8 0 3
BITMAP
FFFE
FFFE
FFFE
0000
0000
FFFE
FFFE
FFFE
ENDCHAR
STARTCHAR greater
ENCODING 62
SWIDTH 450 0
DWIDTH 13 0
BBX 12 14 0 0
BITMAP
FC00
FE00
FE00
7F80
1FC0
1FC0
0FF0
0FF0
1FC0
1FC0
7F80
FE00
FE00
FC00
ENDCHAR
STARTCHAR question
ENCODING 63
SWIDTH 600 0
DWIDTH 17 0
BBX 16 14 0 0
BITMAP
7FFE
7FFE
FFFF
FC3F
FC3F
FC3F
01FF
03FE
03FE
03C0
0000
03C0
03C0
03C0
ENDCHAR
STARTCHAR at
ENCODING 64
SWIDTH 700 0
DWIDTH 20 0
BBX 18 14 0 0
BITMAP
7FFF80
FFFFC0
FFFFC0
FC0FC0
FDEFC0
FDEFC0
FD2FC0
FD2FC0
FD2FC0
FDFF80
FC0000
FFFFC0
FFFFC0
7FFFC0
ENDCHAR
STARTCHAR A
ENCODING 65
SWIDTH 600 0
DWIDTH 17 0
BBX 16 14 0 0
BITMAP
7FFE
FFFF
FFFF
FC3F
FC3F
FFFF
FFFF
FFFF
FC3F
FC3F
FC3F
FC3F
FC3F
FC3F
ENDCHAR
STARTCHAR B
ENCODING 66
SWIDTH 600 0
DWIDTH 17 0
BBX 16 14 0 0
BITMAP
FFFE
FFFF
FFFF
FC3F
FC3F
FFFE
FFFE
FFFE
FC3F
FC3F
FC3F
FFFF
FFFF
FFFE
ENDCHAR
STARTCHAR C
ENCODING 67
SWIDTH 600 0
DWIDTH 17 0
BBX 16 14 0 0
BITMAP
7FFE
7FFE
FFFF
FC3F
FC3F
FC3F
FC00
FC00
FC00
FC3F
FC3F
FFFF
FFFF
7FFE
ENDCHAR
STARTCHAR D
ENCODING 68
SWIDTH 600 0
DWIDTH 17 0
BBX 16 14 0 0
BITMAP
FFF8
FFFE
FFFE
FC7F
FC3F
FC3F
FC3F
FC3F
FC3F
FC3F
FC7F
FFFE
FFFE
FFF8
ENDCHAR
STARTCHAR E
ENCODING 69
SWIDTH 600 0
DWIDTH 17 0
BBX 16 14 0 0
BITMAP
7FFF
FFFF
FFFF
FC00
FC00
FFC0
FFC0
FFC0
FC00
FC00
FC00
FFFF
FFFF
7FFF
ENDCHAR
STARTCHAR F
ENCODING 70
SWIDTH 600 0
DWIDTH 17 0
BBX 16 14 0 0
BITMAP
7FFF
FFFF
FFFF
FC00
FC00
FFC0
FFC0
FFC0
FC00
FC00
FC00
FC00
FC00
FC00
ENDCHAR
STARTCHAR G
ENCODING 71
SWIDTH 600 0
DWIDTH 17 0
BBX 16 14 0 0
BITMAP
7FFF
FFFF
FFFF
FC00
FC00
FDFE
FDFF
FDFF
FC3F
FC3F
FC3F
FFFF
FFFF
7FFE
ENDCHAR
STARTCHAR H
ENCODING 72
SWIDTH 600 0
DWIDTH 17 0
BBX 16 14 0 0
BITMAP
FC3F
FC3F
FC3F
FC3F
FC3F
FFFF
FFFF
FFFF
FC3F
FC3F
FC3F
FC3F
FC3F
FC3F
ENDCHAR
STARTCHAR I
ENCODING 73
SWIDTH 550 0
DWIDTH 15 0
BBX 14 14 0 0
BITMAP
FFFC
FFFC
FFFC
0FC0
0FC0
0FC0
0FC0
0FC0
0FC0
0FC0
0FC0
FFFC
FFFC
FFFC
ENDCHAR
STARTCHAR J
ENCODING 74
SWIDTH 600 0
DWIDTH 17 0
BBX 16 14 0 0
BITMAP
003F
003F
003F
003F
003F
003F
003F
003F
003F
FC3F
FC3F
FFFF
FFFF
7FFE
ENDCHAR
STARTCHAR K
ENCODING 75
SWIDTH 650 0
DWIDTH 18 0
BBX 17 14 0 0
BITMAP
FC3F80
FC7F80
FC7F80
FDFF00
FFFC00
FFFC00
FFF800
FFF800
FFFC00
FFFC00
FDFF00
FC7F80
FC7F80
FC3F80
ENDCHAR
STARTCHAR L
ENCODING 76
SWIDTH 600 0
DWIDTH 17 0
BBX 16 14 0 0
BITMAP
FC00
FC00
FC00
FC00
FC00
FC00
FC00
FC00
FC00
FC00
FC00
FFFF
FFFF
FFFF
ENDCHAR
STARTCHAR M
ENCODING 77
SWIDTH 700 0
DWIDTH 20 0
BBX 18 14 0 0
BITMAP
FC0FC0
FE1FC0
FE1FC0
FF3FC0
FFFFC0
FFFFC0
FFFFC0
FDEFC0
FDEFC0
FCCFC0
FC0FC0
FC0FC0
FC0FC0
FC0FC0
ENDCHAR
STARTCHAR N
ENCODING 78
SWIDTH 600 0
DWIDTH 17 0
BBX 16 14 0 0
BITMAP
FC3F
FE3F
FE3F
FFBF
FFFF
FFFF
FFFF
FDFF
FC7F
FC7F
FC3F
FC3F
FC3F
FC3F
ENDCHAR
STARTCHAR O
ENCODING 79
SWIDTH 600 0
DWIDTH 17 0
BBX 16 14 0 0
BITMAP
7FFE
FFFF
FFFF
FC3F
FC3F
FC3F
FC3F
FC3F
FC3F
FC3F
FC3F
FFFF
FFFF
7FFE
ENDCHAR
STARTCHAR P
ENCODING 80
SWIDTH 600 0
DWIDTH 17 0
BBX 16 14 0 0
BITMAP
FFFE
FFFF
FFFF
FC3F
FC3F
FFFF
FFFF
FFFE
FC00
FC00
FC00
FC00
FC00
FC00
ENDCHAR
STARTCHAR Q
ENCODING 81
SWIDTH 600 0
DWIDTH 17 0
BBX 16 17 0 -3
BITMAP
7FFE
FFFF
FFFF
FC3F
FC3F
FC3F
FC3F
FC3F
FC3F
FC3F
FC3F
FFFF
FFFF
7FFE
03C0
03C0
03C0
ENDCHAR
STARTCHAR R
ENCODING 82
SWIDTH 600 0
DWIDTH 17 0
BBX 16 14 0 0
BITMAP
FFFE
FFFF
FFFF
FC3F
FC3F
FFFE
FFFE
FFFE
FC3F
FC3F
FC3F
FC3F
FC3F
FC3F
ENDCHAR
STARTCHAR S
ENCODING 83
SWIDTH 600 0
DWIDTH 17 0
BBX 16 14 0 0
BITMAP
7FFF
FFFF
FFFF
FC00
FC00
FFFE
FFFF
7FFF
003F
003F
003F
FFFF
FFFF
FFFE
ENDCHAR
STARTCHAR T
ENCODING 84
SWIDTH 550 0
DWIDTH 15 0
BBX 14 14 0 0
BITMAP
FFFC
FFFC
FFFC
0FC0
0FC0
0FC0
0FC0
0FC0
0FC0
0FC0
0FC0
0FC0
0FC0
0FC0
ENDCHAR
STARTCHAR U
ENCODING 85
SWIDTH 600 0
DWIDTH 17 0
BBX 16 14 0 0
BITMAP
FC3F
FC3F
FC3F
FC3F
FC3F
FC3F
FC3F
FC3F
FC3F
FC3F
FC3F
FFFF
FFFF
7FFE
ENDCHAR
STARTCHAR V
ENCODING 86
SWIDTH 600 0
DWIDTH 17 0
BBX 16 14 0 0
BITMAP
FC3F
FC3F
FC3F
FC3F
FC3F
FC3F
FC3F
FC7F
FDFE
FDFE
FFF8
FFF0
FFF0
FFC0
ENDCHAR
STARTCHAR W
ENCODING 87
SWIDTH 700 0
DWIDTH 20 0
BBX 18 14 0 0
BITMAP
FC0FC0
FC0FC0
FC0FC0
FC0FC0
FCCFC0
FDEFC0
FDEFC0
FFFFC0
FFFFC0
FFFFC0
FF3FC0
FE1FC0
FE1FC0
FC0FC0
ENDCHAR
STARTCHAR X
ENCODING 88
SWIDTH 600 0
DWIDTH 17 0
BBX 16 14 0 0
BITMAP
F00F
FC3F
FC3F
FE7F
3FFE
3FFE
1FF8
1FF8
3FFE
3FFE
FE7F
FC3F
FC3F
F00F
ENDCHAR
STARTCHAR Y
ENCODING 89
SWIDTH 650 0
DWIDTH 18 0
BBX 18 14 0 0
BITMAP
FC0FC0
FC0FC0
FC0FC0
FC0FC0
FF3FC0
FF3FC0
7FFF80
1FFE00
1FFE00
03F000
03F000
03F000
03F000
03F000
ENDCHAR
STARTCHAR Z
ENCODING 90
SWIDTH 600 0
DWIDTH 17 0
BBX 15 14 0 0
BITMAP
FFFE
FFFE
FFFE
00FE
01FC
01FC
03F8
0FE0
1FC0
1FC0
7F00
FFFE
FFFE
FFFE
ENDCHAR
STARTCHAR bracketleft
ENCODING 91
SWIDTH 400 0
DWIDTH 11 0
BBX 10 14 0 0
BITMAP
FFC0
FFC0
FFC0
FC00
FC00
FC00
FC00
FC00
FC00
FC00
FC00
FFC0
FFC0
FFC0
ENDCHAR
STARTCHAR backslash
ENCODING 92
SWIDTH 650 0
DWIDTH 18 0
BBX 17 14 0 0
BITMAP
FC0000
FE0000
FE0000
7F0000
1FC000
1FC000
0FE000
03F800
01FC00
01FC00
00FE00
003F80
003F80
001F80
ENDCHAR
STARTCHAR bracketright
ENCODING 93
SWIDTH 400 0
DWIDTH 11 0
BBX 10 14 0 0
BITMAP
FFC0
FFC0
FFC0
0FC0
0FC0
0FC0
0FC0
0FC0
0FC0
0FC0
0FC0
FFC0
FFC0
FFC0
ENDCHAR
STARTCHAR asciicircum
ENCODING 94
SWIDTH 500 0
DWIDTH 14 0
BBX 13 8 0 6
BITMAP
0F00
1FC0
7FE0
7FE0
FFF8
FDF8
FDF8
F0F8
ENDCHAR
STARTCHAR underscore
ENCODING 95
SWIDTH 600 0
DWIDTH 17 0
BBX 15 3 0 -4
BITMAP
FFFE
FFFE
FFFE
ENDCHAR
STARTCHAR grave
ENCODING 96
SWIDTH 200 0
DWIDTH 6 0
BBX 4 3 0 11
BITMAP
F0
F0
F0
ENDCHAR
STARTCHAR a
ENCODING 97
SWIDTH 600 0
DWIDTH 17 0
BBX 16 14 0 0
BITMAP
7FFE
FFFF
FFFF
FC3F
FC3F
FFFF
FFFF
FFFF
FC3F
FC3F
FC3F
FC3F
FC3F
FC3F
ENDCHAR
STARTCHAR b
ENCODING 98
SWIDTH 600 0
DWIDTH 17 0
BBX 16 14 0 0
BITMAP
FFFE
FFFF
FFFF
FC3F
FC3F
FFFE
FFFE
FFFE
FC3F
FC3F
FC3F
FFFF
FFFF
FFFE
ENDCHAR
STARTCHAR c
ENCODING 99
SWIDTH 600 0
DWIDTH 17 0
BBX 16 14 0 0
BITMAP
7FFE
7FFE
FFFF
FC3F
FC3F
FC3F
FC00
FC00
FC00
FC3F
FC3F
FFFF
FFFF
7FFE
ENDCHAR
STARTCHAR d
ENCODING 100
SWIDTH 600 0
DWIDTH 17 0
BBX 16 14 0 0
BITMAP
FFF8
FFFE
FFFE
FC7F
FC3F
FC3F
FC3F
FC3F
FC3F
FC3F
FC7F
FFFE
FFFE
FFF8
ENDCHAR
STARTCHAR e
ENCODING 101
SWIDTH 600 0
DWIDTH 17 0
BBX 16 14 0 0
BITMAP
7FFF
FFFF
FFFF
FC00
FC00
FFC0
FFC0
FFC0
FC00
FC00
FC00
FFFF
FFFF
7FFF
ENDCHAR
STARTCHAR f
ENCODING 102
SWIDTH 600 0
DWIDTH 17 0
BBX 16 14 0 0
BITMAP
7FFF
FFFF
FFFF
FC00
FC00
FFC0
FFC0
FFC0
FC00
FC00
FC00
FC00
FC00
FC00
ENDCHAR
STARTCHAR g
ENCODING 103
SWIDTH 600 0
DWIDTH 17 0
BBX 16 14 0 0
BITMAP
7FFF
FFFF
FFFF
FC00
FC00
FDFE
FDFF
FDFF
FC3F
FC3F
FC3F
FFFF
FFFF
7FFE
ENDCHAR
STARTCHAR h
ENCODING 104
SWIDTH 600 0
DWIDTH 17 0
BBX 16 14 0 0
BITMAP
FC3F
FC3F
FC3F
FC3F
FC3F
FFFF
FFFF
FFFF
FC3F
FC3F
FC3F
FC3F
FC3F
FC3F
ENDCHAR
STARTCHAR i
ENCODING 105
SWIDTH 550 0
DWIDTH 15 0
BBX 14 14 0 0
BITMAP
FFFC
FFFC
FFFC
0FC0
0FC0
0FC0
0FC0
0FC0
0FC0
0FC0
0FC0
FFFC
FFFC
FFFC
ENDCHAR
STARTCHAR j
ENCODING 106
SWIDTH 600 0
DWIDTH 17 0
BBX 16 14 0 0
BITMAP
003F
003F
003F
003F
003F
003F
003F
003F
003F
FC3F
FC3F
FFFF
FFFF
7FFE
ENDCHAR
STARTCHAR k
ENCODING 107
SWIDTH 650 0
DWIDTH 18 0
BBX 17 14 0 0
BITMAP
FC3F80
FC7F80
FC7F80
FDFF00
FFFC00
FFFC00
FFF800
FFF800
FFFC00
FFFC00
FDFF00
FC7F80
FC7F80
FC3F80
ENDCHAR
STARTCHAR l
ENCODING 108
SWIDTH 600 0
DWIDTH 17 0
BBX 16 14 0 0
BITMAP
FC00
FC00
FC00
FC00
FC00
FC00
FC00
FC00
FC00
FC00
FC00
FFFF
FFFF
FFFF
ENDCHAR
STARTCHAR m
ENCODING 109
SWIDTH 700 0
DWIDTH 20 0
BBX 18 14 0 0
BITMAP
FC0FC0
FE1FC0
FE1FC0
FF3FC0
FFFFC0
FFFFC0
FFFFC0
FDEFC0
FDEFC0
FCCFC0
FC0FC0
FC0FC0
FC0FC0
FC0FC0
ENDCHAR
STARTCHAR n
ENCODING 110
SWIDTH 600 0
DWIDTH 17 0
BBX 16 14 0 0
BITMAP
FC3F
FE3F
FE3F
FFBF
FFFF
FFFF
FFFF
FDFF
FC7F
FC7F
FC3F
FC3F
FC3F
FC3F
ENDCHAR
STARTCHAR o
ENCODING 111
SWIDTH 600 0
DWIDTH 17 0
BBX 16 14 0 0
BITMAP
7FFE
FFFF
FFFF
FC3F
FC3F
FC3F
FC3F
FC3F
FC3F
FC3F
FC3F
FFFF
FFFF
7FFE
ENDCHAR
STARTCHAR p
ENCODING 112
SWIDTH 600 0
DWIDTH 17 0
BBX 16 14 0 0
BITMAP
FFFE
FFFF
FFFF
FC3F
FC3F
FFFF
FFFF
FFFE
FC00
FC00
FC00
FC00
FC00
FC00
ENDCHAR
STARTCHAR q
ENCODING 113
SWIDTH 600 0
DWIDTH 17 0
BBX 16 17 0 -3
BITMAP
7FFE
FFFF
FFFF
FC3F
FC3F
FC3F
FC3F
FC3F
FC3F
FC3F
FC3F
FFFF
FFFF
7FFE
03C0
03C0
03C0
ENDCHAR
STARTCHAR r
ENCODING 114
SWIDTH 600 0
DWIDTH 17 0
BBX 16 14 0 0
BITMAP
FFFE
FFFF
FFFF
FC3F
FC3F
FFFE
FFFE
FFFE
FC3F
FC3F
FC3F
FC3F
FC3F
FC3F
ENDCHAR
STARTCHAR s
ENCODING 115
SWIDTH 600 0
DWIDTH 17 0
BBX 16 14 0 0
BITMAP
7FFF
FFFF
FFFF
FC00
FC00
FFFE
FFFF
7FFF
003F
003F
003F
FFFF
FFFF
FFFE
ENDCHAR
STARTCHAR t
ENCODING 116
SWIDTH 550 0
DWIDTH 15 0
BBX 14 14 0 0
BITMAP
FFFC
FFFC
FFFC
0FC0
0FC0
0FC0
0FC0
0FC0
0FC0
0FC0
0FC0
0FC0
0FC0
0FC0
ENDCHAR
STARTCHAR u
ENCODING 117
SWIDTH 600 0
DWIDTH 17 0
BBX 16 14 0 0
BITMAP
FC3F
FC3F
FC3F
FC3F
FC3F
FC3F
FC3F
FC3F
FC3F
FC3F
FC3F
FFFF
FFFF
7FFE
ENDCHAR
STARTCHAR v
ENCODING 118
SWIDTH 600 0
DWIDTH 17 0
BBX 16 14 0 0
BITMAP
FC3F
FC3F
FC3F
FC3F
FC3F
FC3F
FC3F
FC7F
FDFE
FDFE
FFF8
FFF0
FFF0
FFC0
ENDCHAR
STARTCHAR w
ENCODING 119
SWIDTH 700 0
DWIDTH 20 0
BBX 18 14 0 0
BITMAP
FC0FC0
FC0FC0
FC0FC0
FC0FC0
FCCFC0
FDEFC0
FDEFC0
FFFFC0
FFFFC0
FFFFC0
FF3FC0
FE1FC0
FE1FC0
FC0FC0
ENDCHAR
STARTCHAR x
ENCODING 120
SWIDTH 600 0
DWIDTH 17 0
BBX 16 14 0 0
BITMAP
F00F
FC3F
FC3F
FE7F
3FFE
3FFE
1FF8
1FF8
3FFE
3FFE
FE7F
FC3F
FC3F
F00F
ENDCHAR
STARTCHAR y
ENCODING 121
SWIDTH 650 0
DWIDTH 18 0
BBX 18 14 0 0
BITMAP
FC0FC0
FC0FC0
FC0FC0
FC0FC0
FF3FC0
FF3FC0
7FFF80
1FFE00
1FFE00
03F000
03F000
03F000
03F000
03F000
ENDCHAR
STARTCHAR z
ENCODING 122
SWIDTH 600 0
DWIDTH 17 0
BBX 15 14 0 0
BITMAP
FFFE
FFFE
FFFE
00FE
01FC
01FC
03F8
0FE0
1FC0
1FC0
7F00
FFFE
FFFE
FFFE
ENDCHAR
STARTCHAR braceleft
ENCODING 123
SWIDTH 450 0
DWIDTH 13 0
BBX 11 14 0 0
BITMAP
3FE0
7FE0
7FE0
7E00
7E00
7E00
FC00
FC00
7E00
7E00
7E00
7FE0
7FE0
3FE0
ENDCHAR
STARTCHAR bar
ENCODING 124
SWIDTH 250 0
DWIDTH 7 0
BBX 6 16 0 -1
BITMAP
FC
FC
FC
FC
FC
FC
FC
FC
FC
FC
FC
FC
FC
FC
FC
FC
ENDCHAR
STARTCHAR braceright
ENCODING 125
SWIDTH 450 0
DWIDTH 13 0
BBX 11 14 0 0
BITMAP
FF80
FFC0
FFC0
0FC0
0FC0
0FC0
07E0
07E0
0FC0
0FC0
0FC0
FFC0
FFC0
FF80
ENDCHAR
STARTCHAR asciitilde
ENCODING 126
SWIDTH 750 0
DWIDTH 21 0
BBX 20 8 0 3
BITMAP
1FC3F0
7FE3F0
FFFBF0
FFFFF0
FFFFF0
FDFFF0
FC7FE0
FC3F80
ENDCHAR
STARTCHAR .0127
ENCODING 127
SWIDTH 600 0
DWIDTH 17 0
BBX 16 14 0 0
BITMAP
FFFF
8FF1
8FF1
E3C7
F10F
FC3F
FC3F
FC3F
F10F
F10F
E3C7
8FF1
8FF1
FFFF
ENDCHAR
STARTCHAR .0128
ENCODING 128
SWIDTH 600 0
DWIDTH 17 0
BBX 16 14 0 0
BITMAP
FFFF
8FF1
8FF1
E3C7
F10F
FC3F
FC3F
FC3F
F10F
F10F
E3C7
8FF1
8FF1
FFFF
ENDCHAR
STARTCHAR .0129
ENCODING 129
SWIDTH 600 0
DWIDTH 17 0
BBX 16 14 0 0
BITMAP
FFFF
8FF1
8FF1
E3C7
F10F
FC3F
FC3F
FC3F
F10F
F10F
E3C7
8FF1
8FF1
FFFF
ENDCHAR
STARTCHAR .0141
ENCODING 141
SWIDTH 600 0
DWIDTH 17 0
BBX 16 14 0 0
BITMAP
FFFF
8FF1
8FF1
E3C7
F10F
FC3F
FC3F
FC3F
F10F
F10F
E3C7
8FF1
8FF1
FFFF
ENDCHAR
STARTCHAR .0142
ENCODING 142
SWIDTH 600 0
DWIDTH 17 0
BBX 16 14 0 0
BITMAP
FFFF
8FF1
8FF1
E3C7
F10F
FC3F
FC3F
FC3F
F10F
F10F
E3C7
8FF1
8FF1
FFFF
ENDCHAR
STARTCHAR .0143
ENCODING 143
SWIDTH 600 0
DWIDTH 17 0
BBX 16 14 0 0
BITMAP
FFFF
8FF1
8FF1
E3C7
F10F
FC3F
FC3F
FC3F
F10F
F10F
E3C7
8FF1
8FF1
FFFF
ENDCHAR
STARTCHAR .0144
ENCODING 144
SWIDTH 600 0
DWIDTH 17 0
BBX 16 14 0 0
BITMAP
FFFF
8FF1
8FF1
E3C7
F10F
FC3F
FC3F
FC3F
F10F
F10F
E3C7
8FF1
8FF1
FFFF
ENDCHAR
STARTCHAR .0157
ENCODING 157
SWIDTH 600 0
DWIDTH 17 0
BBX 16 14 0 0
BITMAP
FFFF
8FF1
8FF1
E3C7
F10F
FC3F
FC3F
FC3F
F10F
F10F
E3C7
8FF1
8FF1
FFFF
ENDCHAR
STARTCHAR .0158
ENCODING 158
SWIDTH 600 0
DWIDTH 17 0
BBX 16 14 0 0
BITMAP
FFFF
8FF1
8FF1
E3C7
F10F
FC3F
FC3F
FC3F
F10F
F10F
E3C7
8FF1
8FF1
FFFF
ENDCHAR
STARTCHAR .0160
ENCODING 160
SWIDTH 350 0
DWIDTH 10 0
BBX 1 1 0 0
BITMAP
00
ENDCHAR
STARTCHAR exclamdown
ENCODING 161
SWIDTH 250 0
DWIDTH 7 0
BBX 6 14 0 0
BITMAP
FC
FC
FC
00
FC
FC
FC
FC
FC
FC
FC
FC
FC
FC
ENDCHAR
STARTCHAR cent
ENCODING 162
SWIDTH 600 0
DWIDTH 17 0
BBX 16 20 0 -3
BITMAP
03C0
03C0
03C0
7FFE
7FFE
FFFF
FC3F
FC3F
FC3F
FC00
FC00
FC07
FC3F
FC3F
FFFF
FFFF
7FFE
03C0
03C0
03C0
ENDCHAR
STARTCHAR sterling
ENCODING 163
SWIDTH 650 0
DWIDTH 18 0
BBX 17 14 0 0
BITMAP
0FFF00
3FFF80
3FFF80
7F1F80
7E0F00
7E0F00
FF0000
FF0000
7E0000
7E0000
7E1F80
FFFF80
FFFF80
FFFC00
ENDCHAR
STARTCHAR currency
ENCODING 164
SWIDTH 550 0
DWIDTH 15 0
BBX 14 14 0 0
BITMAP
E01C
E01C
EFDC
1FE0
7FF0
7FF0
78F0
78F0
78F0
7FF0
1FE0
EFDC
EFDC
E01C
ENDCHAR
STARTCHAR yen
ENCODING 165
SWIDTH 650 0
DWIDTH 18 0
BBX 18 17 0 -3
BITMAP
FC0FC0
FC0FC0
FC0FC0
FC0FC0
FF3FC0
FF3FC0
7FFF80
1FFE00
1FFE00
03F000
1FFE00
03F000
03F000
1FFE00
03F000
03F000
03F000
ENDCHAR
STARTCHAR brokenbar
ENCODING 166
SWIDTH 250 0
DWIDTH 7 0
BBX 6 20 0 -3
BITMAP
FC
FC
FC
FC
FC
FC
FC
FC
00
00
00
00
FC
FC
FC
FC
FC
FC
FC
FC
ENDCHAR
STARTCHAR section
ENCODING 167
SWIDTH 600 0
DWIDTH 17 0
BBX 16 20 0 -3
BITMAP
7FFF
FFFF
FFFF
FC00
FC00
FC00
FFFE
FFFF
FFFF
FC3F
FC3F
FFFF
FFFF
7FFF
003F
003F
003F
FFFF
FFFF
FFFE
ENDCHAR
STARTCHAR dieresis
ENCODING 168
SWIDTH 450 0
DWIDTH 13 0
BBX 11 4 0 17
BITMAP
F1E0
F1E0
F1E0
F1E0
ENDCHAR
STARTCHAR copyright
ENCODING 169
SWIDTH 750 0
DWIDTH 21 0
BBX 20 14 0 0
BITMAP
7FFFE0
FFFFF0
FFFFF0
FC03F0
FCF3F0
FDC3F0
FDC3F0
FDC3F0
FDC3F0
FCF3F0
FC03F0
FFFFF0
FFFFF0
7FFFE0
ENDCHAR
STARTCHAR ordfeminine
ENCODING 170
SWIDTH 350 0
DWIDTH 10 0
BBX 9 7 0 7
BITMAP
FF80
0380
0380
FF80
E380
E380
FF80
ENDCHAR
STARTCHAR guillemotleft
ENCODING 171
SWIDTH 550 0
DWIDTH 15 0
BBX 14 11 0 1
BITMAP
0E1C
1E3C
1E3C
F1E0
F1E0
F1E0
79F0
78F0
1E3C
1E3C
0E1C
ENDCHAR
STARTCHAR logicalnot
ENCODING 172
SWIDTH 400 0
DWIDTH 11 0
BBX 10 6 0 3
BITMAP
FFC0
FFC0
FFC0
03C0
03C0
03C0
ENDCHAR
STARTCHAR hyphen
ENCODING 173
SWIDTH 250 0
DWIDTH 7 0
BBX 6 3 0 6
BITMAP
FC
FC
FC
ENDCHAR
STARTCHAR registered
ENCODING 174
SWIDTH 750 0
DWIDTH 21 0
BBX 20 14 0 0
BITMAP
7FFFE0
FFFFF0
FFFFF0
FC03F0
FDF3F0
FDF3F0
FDD3F0
FDE3F0
FDF3F0
FDD3F0
FC03F0
FFFFF0
FFFFF0
7FFFE0
ENDCHAR
STARTCHAR macron
ENCODING 175
SWIDTH 600 0
DWIDTH 17 0
BBX 15 3 0 15
BITMAP
FFFE
FFFE
FFFE
ENDCHAR
STARTCHAR degree
ENCODING 176
SWIDTH 400 0
DWIDTH 11 0
BBX 10 5 0 16
BITMAP
FFC0
E1C0
E1C0
E1C0
FFC0
ENDCHAR
STARTCHAR plusminus
ENCODING 177
SWIDTH 600 0
DWIDTH 17 0
BBX 16 14 0 0
BITMAP
03C0
03C0
03C0
FFFF
FFFF
FFFF
03C0
03C0
03C0
0000
0000
FFFE
FFFE
FFFE
ENDCHAR
STARTCHAR twosuperior
ENCODING 178
SWIDTH 350 0
DWIDTH 10 0
BBX 8 7 0 7
BITMAP
FF
03
03
FF
E0
E0
FF
ENDCHAR
STARTCHAR threesuperior
ENCODING 179
SWIDTH 350 0
DWIDTH 10 0
BBX 9 7 0 7
BITMAP
FF80
0380
0380
FF80
0380
0380
FF80
ENDCHAR
STARTCHAR acute
ENCODING 180
SWIDTH 250 0
DWIDTH 7 0
BBX 6 6 0 15
BITMAP
1C
7C
7C
F0
F0
E0
ENDCHAR
STARTCHAR mu
ENCODING 181
SWIDTH 600 0
DWIDTH 17 0
BBX 16 18 0 -4
BITMAP
FC3F
FC3F
FC3F
FC3F
FC3F
FC3F
FC3F
FC3F
FC3F
FC3F
FC3F
FFFF
FFFF
FFFE
FC00
FC00
FC00
FC00
ENDCHAR
STARTCHAR paragraph
ENCODING 182
SWIDTH 450 0
DWIDTH 13 0
BBX 11 14 0 0
BITMAP
3FE0
FFE0
FFE0
FDC0
FDC0
FDC0
FDC0
3DC0
1DC0
1DC0
1DC0
1DC0
1DC0
1DC0
ENDCHAR
STARTCHAR periodcentered
ENCODING 183
SWIDTH 250 0
DWIDTH 7 0
BBX 6 6 0 4
BITMAP
FC
FC
FC
FC
FC
FC
ENDCHAR
STARTCHAR cedilla
ENCODING 184
SWIDTH 250 0
DWIDTH 7 0
BBX 5 4 0 -4
BITMAP
78
78
78
F0
ENDCHAR
STARTCHAR onesuperior
ENCODING 185
SWIDTH 150 0
DWIDTH 4 0
BBX 3 7 0 7
BITMAP
E0
E0
E0
E0
E0
E0
E0
ENDCHAR
STARTCHAR ordmasculine
ENCODING 186
SWIDTH 350 0
DWIDTH 10 0
BBX 9 7 0 7
BITMAP
FF80
E380
E380
E380
E380
E380
FF80
ENDCHAR
STARTCHAR guillemotright
ENCODING 187
SWIDTH 550 0
DWIDTH 15 0
BBX 14 11 0 1
BITMAP
E1C0
F1E0
F1E0
78F0
1E3C
1E3C
78F0
78F0
F1E0
F1E0
E1C0
ENDCHAR
STARTCHAR onequarter
ENCODING 188
SWIDTH 650 0
DWIDTH 18 0
BBX 17 14 0 0
BITMAP
701F80
701F80
F03F80
70FF00
71FF00
71FC00
07F000
0FE000
3FD380
7FD380
7F1380
FE1F80
FC0380
FC0380
ENDCHAR
STARTCHAR onehalf
ENCODING 189
SWIDTH 650 0
DWIDTH 18 0
BBX 17 14 0 0
BITMAP
701F80
701F80
F03F80
70FE00
71FE00
71FC00
07F800
0FE000
3FDF80
7F0380
7F0380
FE1C00
FE1C00
FC1F80
ENDCHAR
STARTCHAR threequarters
ENCODING 190
SWIDTH 650 0
DWIDTH 18 0
BBX 17 14 0 0
BITMAP
FC1F80
FC3F80
3C3F80
1CFF00
FDFC00
03F000
03F000
0FE000
0FE000
1FD380
3F9380
FE1F80
FC1B80
FC0380
ENDCHAR
STARTCHAR questiondown
ENCODING 191
SWIDTH 600 0
DWIDTH 17 0
BBX 16 14 0 0
BITMAP
03C0
03C0
03C0
0000
03C0
7FC0
7FC0
FF80
FC3F
FC3F
FC3F
FFFF
FFFF
7FFE
ENDCHAR
STARTCHAR Agrave
ENCODING 192
SWIDTH 600 0
DWIDTH 17 0
BBX 16 21 0 0
BITMAP
0600
0780
0780
03C0
01C0
01C0
0000
7FFE
FFFF
FFFF
FC3F
FC3F
FFFF
FFFF
FFFF
FC3F
FC3F
FC3F
FC3F
FC3F
FC3F
ENDCHAR
STARTCHAR Aacute
ENCODING 193
SWIDTH 600 0
DWIDTH 17 0
BBX 16 21 0 0
BITMAP
0070
01F0
01F0
03C0
0380
0380
0000
7FFE
FFFF
FFFF
FC3F
FC3F
FFFF
FFFF
FFFF
FC3F
FC3F
FC3F
FC3F
FC3F
FC3F
ENDCHAR
STARTCHAR Acircumflex
ENCODING 194
SWIDTH 600 0
DWIDTH 17 0
BBX 16 21 0 0
BITMAP
0180
03C0
0660
0660
1C38
0000
0000
7FFE
FFFF
FFFF
FC3F
FC3F
FFFF
FFFF
FFFF
FC3F
FC3F
FC3F
FC3F
FC3F
FC3F
ENDCHAR
STARTCHAR Atilde
ENCODING 195
SWIDTH 600 0
DWIDTH 17 0
BBX 16 21 0 0
BITMAP
0E38
0EB8
1FF8
1DF8
1C70
1C70
0000
7FFE
FFFF
FFFF
FC3F
FC3F
FFFF
FFFF
FFFF
FC3F
FC3F
FC3F
FC3F
FC3F
FC3F
ENDCHAR
STARTCHAR Adieresis
ENCODING 196
SWIDTH 600 0
DWIDTH 17 0
BBX 16 21 0 0
BITMAP
3C3C
3C3C
3C3C
3C3C
0000
0000
0000
3FFC
FFFF
FFFF
FC3F
FC3F
FFFF
FFFF
FFFF
FC3F
FC3F
FC3F
FC3F
FC3F
FC3F
ENDCHAR
STARTCHAR Aring
ENCODING 197
SWIDTH 600 0
DWIDTH 17 0
BBX 16 21 0 0
BITMAP
1FF8
1C38
1C38
1C38
1FF8
0000
0000
7FFE
FFFF
FFFF
FC3F
FC3F
FFFF
FFFF
FFFF
FC3F
FC3F
FC3F
FC3F
FC3F
FC3F
ENDCHAR
STARTCHAR AE
ENCODING 198
SWIDTH 700 0
DWIDTH 20 0
BBX 18 14 0 0
BITMAP
7FFFC0
FFFFC0
FFFFC0
F1E000
F1E000
FFFC00
FFFC00
FFFC00
F1E000
F1E000
F1E000
F1FFC0
F1FFC0
F1FFC0
ENDCHAR
STARTCHAR Ccedilla
ENCODING 199
SWIDTH 600 0
DWIDTH 17 0
BBX 16 18 0 -4
BITMAP
7FFE
7FFE
FFFF
FC3F
FC3F
FC3F
FC00
FC00
FC07
FC3F
FC3F
FC3F
FFFF
7FFE
03C0
03C0
03C0
0780
ENDCHAR
STARTCHAR Egrave
ENCODING 200
SWIDTH 600 0
DWIDTH 17 0
BBX 16 21 0 0
BITMAP
0600
0780
0780
03C0
01C0
01C0
0000
7FFF
FFFF
FFFF
FC00
FC00
FFC0
FFC0
FFC0
FC00
FC00
FC00
FFFF
FFFF
7FFF
ENDCHAR
STARTCHAR Eacute
ENCODING 201
SWIDTH 600 0
DWIDTH 17 0
BBX 16 21 0 0
BITMAP
0060
01E0
01E0
03C0
0380
0380
0000
7FFF
FFFF
FFFF
FC00
FC00
FFC0
FFC0
FFC0
FC00
FC00
FC00
FFFF
FFFF
7FFF
ENDCHAR
STARTCHAR Ecircumflex
ENCODING 202
SWIDTH 600 0
DWIDTH 17 0
BBX 16 21 0 0
BITMAP
0180
03C0
0670
0670
1C38
0000
0000
7FFF
FFFF
FFFF
FC00
FC00
FFC0
FFC0
FFC0
FC00
FC00
FC00
FFFF
FFFF
7FFF
ENDCHAR
STARTCHAR Edieresis
ENCODING 203
SWIDTH 600 0
DWIDTH 17 0
BBX 16 21 0 0
BITMAP
3C3C
3C3C
3C3C
3C3C
0000
0000
0000
3FFF
FFFF
FFFF
FC00
FC00
FFC0
FFC0
FFC0
FC00
FC00
FC00
FFFF
FFFF
3FFF
ENDCHAR
STARTCHAR Igrave
ENCODING 204
SWIDTH 550 0
DWIDTH 15 0
BBX 14 21 0 0
BITMAP
0E00
0F80
0F80
07C0
01C0
01C0
0000
FFFC
FFFC
FFFC
0FC0
0FC0
0FC0
0FC0
0FC0
0FC0
0FC0
0FC0
FFFC
FFFC
FFFC
ENDCHAR
STARTCHAR Iacute
ENCODING 205
SWIDTH 550 0
DWIDTH 15 0
BBX 14 21 0 0
BITMAP
01C0
07C0
07C0
0F80
0E00
0E00
0000
FFFC
FFFC
FFFC
0FC0
0FC0
0FC0
0FC0
0FC0
0FC0
0FC0
0FC0
FFFC
FFFC
FFFC
ENDCHAR
STARTCHAR Icircumflex
ENCODING 206
SWIDTH 550 0
DWIDTH 15 0
BBX 14 21 0 0
BITMAP
0780
0FC0
1CE0
1CE0
7038
0000
0000
FFFC
FFFC
FFFC
0FC0
0FC0
0FC0
0FC0
0FC0
0FC0
0FC0
0FC0
FFFC
FFFC
FFFC
ENDCHAR
STARTCHAR Idieresis
ENCODING 207
SWIDTH 550 0
DWIDTH 15 0
BBX 14 21 0 0
BITMAP
78F0
78F0
78F0
78F0
0000
0000
0000
FFFC
FFFC
FFFC
0FC0
0FC0
0FC0
0FC0
0FC0
0FC0
0FC0
0FC0
FFFC
FFFC
FFFC
ENDCHAR
STARTCHAR Eth
ENCODING 208
SWIDTH 650 0
DWIDTH 18 0
BBX 17 14 0 0
BITMAP
7FFC00
7FFF00
7FFF00
7E3F80
7E1F80
FF1F80
FF1F80
FF1F80
7E1F80
7E1F80
7E3F80
7FFF00
7FFF00
7FFC00
ENDCHAR
STARTCHAR Ntilde
ENCODING 209
SWIDTH 600 0
DWIDTH 17 0
BBX 16 21 0 0
BITMAP
0E38
0EB8
1FF8
1DF8
1CE0
1CE0
0000
FC3F
FE3F
FE3F
FF3F
FFFF
FFFF
FFFF
FDFF
FCFF
FCFF
FC3F
FC3F
FC3F
FC3F
ENDCHAR
STARTCHAR Ograve
ENCODING 210
SWIDTH 600 0
DWIDTH 17 0
BBX 16 21 0 0
BITMAP
0600
0780
0780
03C0
01C0
01C0
0000
7FFE
FFFF
FFFF
FC3F
FC3F
FC3F
FC3F
FC3F
FC3F
FC3F
FC3F
FFFF
FFFF
7FFE
ENDCHAR
STARTCHAR Oacute
ENCODING 211
SWIDTH 600 0
DWIDTH 17 0
BBX 16 21 0 0
BITMAP
0070
01F0
01F0
03C0
0380
0380
0000
7FFE
FFFF
FFFF
FC3F
FC3F
FC3F
FC3F
FC3F
FC3F
FC3F
FC3F
FFFF
FFFF
7FFE
ENDCHAR
STARTCHAR Ocircumflex
ENCODING 212
SWIDTH 600 0
DWIDTH 17 0
BBX 16 21 0 0
BITMAP
0180
03C0
0660
0660
1C38
0000
0000
7FFE
FFFF
FFFF
FC3F
FC3F
FC3F
FC3F
FC3F
FC3F
FC3F
FC3F
FFFF
FFFF
7FFE
ENDCHAR
STARTCHAR Otilde
ENCODING 213
SWIDTH 600 0
DWIDTH 17 0
BBX 16 21 0 0
BITMAP
0E38
0EB8
1FF8
1DF8
1C70
1C70
0000
7FFE
FFFF
FFFF
FC3F
FC3F
FC3F
FC3F
FC3F
FC3F
FC3F
FC3F
FFFF
FFFF
7FFE
ENDCHAR
STARTCHAR Odieresis
ENCODING 214
SWIDTH 600 0
DWIDTH 17 0
BBX 16 21 0 0
BITMAP
3C3C
3C3C
3C3C
3C3C
0000
0000
0000
3FFC
FFFF
FFFF
FC3F
FC3F
FC3F
FC3F
FC3F
FC3F
FC3F
FC3F
FFFF
FFFF
3FFC
ENDCHAR
STARTCHAR multiply
ENCODING 215
SWIDTH 450 0
DWIDTH 13 0
BBX 12 11 0 1
BITMAP
E070
F1F0
F1F0
7FE0
1F80
1F80
1F80
7FE0
F1F0
F1F0
E070
ENDCHAR
STARTCHAR Oslash
ENCODING 216
SWIDTH 600 0
DWIDTH 17 0
BBX 16 20 0 -3
BITMAP
0007
000F
000F
7FFE
FFFF
FFFF
FC7F
FDFF
FDFF
FDFF
FFBF
FFBF
FFBF
FE3F
FFFF
FFFF
7FFE
F000
F000
E000
ENDCHAR
STARTCHAR Ugrave
ENCODING 217
SWIDTH 600 0
DWIDTH 17 0
BBX 16 21 0 0
BITMAP
0600
0780
0780
03C0
01C0
01C0
0000
FC3F
FC3F
FC3F
FC3F
FC3F
FC3F
FC3F
FC3F
FC3F
FC3F
FC3F
FFFF
FFFF
7FFE
ENDCHAR
STARTCHAR Uacute
ENCODING 218
SWIDTH 600 0
DWIDTH 17 0
BBX 16 21 0 0
BITMAP
0070
01F0
01F0
03C0
0380
0380
0000
FC3F
FC3F
FC3F
FC3F
FC3F
FC3F
FC3F
FC3F
FC3F
FC3F
FC3F
FFFF
FFFF
7FFE
ENDCHAR
STARTCHAR Ucircumflex
ENCODING 219
SWIDTH 600 0
DWIDTH 17 0
BBX 16 21 0 0
BITMAP
0180
03C0
0660
0660
1C38
0000
0000
FC3F
FC3F
FC3F
FC3F
FC3F
FC3F
FC3F
FC3F
FC3F
FC3F
FC3F
FFFF
FFFF
7FFE
ENDCHAR
STARTCHAR Udieresis
ENCODING 220
SWIDTH 600 0
DWIDTH 17 0
BBX 16 21 0 0
BITMAP
3C3C
3C3C
3C3C
3C3C
0000
0000
0000
FC3F
FC3F
FC3F
FC3F
FC3F
FC3F
FC3F
FC3F
FC3F
FC3F
FC3F
FFFF
FFFF
3FFC
ENDCHAR
STARTCHAR Yacute
ENCODING 221
SWIDTH 650 0
DWIDTH 18 0
BBX 18 21 0 0
BITMAP
007000
01F000
01F000
03E000
038000
038000
000000
FC0FC0
FC0FC0
FC0FC0
FC0FC0
FF3FC0
FF3FC0
7FFF80
1FFE00
1FFE00
03F000
03F000
03F000
03F000
03F000
ENDCHAR
STARTCHAR Thorn
ENCODING 222
SWIDTH 600 0
DWIDTH 17 0
BBX 16 14 0 0
BITMAP
FC00
FC00
FC00
FFFE
FFFF
FFFF
FC3F
FC3F
FFFF
FFFF
FFFE
FC00
FC00
FC00
ENDCHAR
STARTCHAR germandbls
ENCODING 223
SWIDTH 600 0
DWIDTH 17 0
BBX 16 14 0 0
BITMAP
3FFE
FFFF
FFFF
FC3F
FC3F
FDFE
FDFE
FDFE
FC3F
FC3F
FC3F
FDFF
FDFF
3DFE
ENDCHAR
STARTCHAR agrave
ENCODING 224
SWIDTH 600 0
DWIDTH 17 0
BBX 16 21 0 0
BITMAP
0600
0780
0780
03C0
01C0
01C0
0000
7FFE
FFFF
FFFF
FC3F
FC3F
FFFF
FFFF
FFFF
FC3F
FC3F
FC3F
FC3F
FC3F
FC3F
ENDCHAR
STARTCHAR aacute
ENCODING 225
SWIDTH 600 0
DWIDTH 17 0
BBX 16 21 0 0
BITMAP
0070
01F0
01F0
03C0
0380
0380
0000
7FFE
FFFF
FFFF
FC3F
FC3F
FFFF
FFFF
FFFF
FC3F
FC3F
FC3F
FC3F
FC3F
FC3F
ENDCHAR
STARTCHAR acircumflex
ENCODING 226
SWIDTH 600 0
DWIDTH 17 0
BBX 16 21 0 0
BITMAP
0180
03C0
0660
0660
1C38
0000
0000
7FFE
FFFF
FFFF
FC3F
FC3F
FFFF
FFFF
FFFF
FC3F
FC3F
FC3F
FC3F
FC3F
FC3F
ENDCHAR
STARTCHAR atilde
ENCODING 227
SWIDTH 600 0
DWIDTH 17 0
BBX 16 21 0 0
BITMAP
0E38
0EB8
1FF8
1DF8
1C70
1C70
0000
7FFE
FFFF
FFFF
FC3F
FC3F
FFFF
FFFF
FFFF
FC3F
FC3F
FC3F
FC3F
FC3F
FC3F
ENDCHAR
STARTCHAR adieresis
ENCODING 228
SWIDTH 600 0
DWIDTH 17 0
BBX 16 21 0 0
BITMAP
3C3C
3C3C
3C3C
3C3C
0000
0000
0000
3FFC
FFFF
FFFF
FC3F
FC3F
FFFF
FFFF
FFFF
FC3F
FC3F
FC3F
FC3F
FC3F
FC3F
ENDCHAR
STARTCHAR aring
ENCODING 229
SWIDTH 600 0
DWIDTH 17 0
BBX 16 21 0 0
BITMAP
1FF8
1C38
1C38
1C38
1FF8
0000
0000
7FFE
FFFF
FFFF
FC3F
FC3F
FFFF
FFFF
FFFF
FC3F
FC3F
FC3F
FC3F
FC3F
FC3F
ENDCHAR
STARTCHAR ae
ENCODING 230
SWIDTH 700 0
DWIDTH 20 0
BBX 18 14 0 0
BITMAP
7FFFC0
FFFFC0
FFFFC0
F1E000
F1E000
FFFC00
FFFC00
FFFC00
F1E000
F1E000
F1E000
F1FFC0
F1FFC0
F1FFC0
ENDCHAR
STARTCHAR ccedilla
ENCODING 231
SWIDTH 600 0
DWIDTH 17 0
BBX 16 18 0 -4
BITMAP
7FFE
7FFE
FFFF
FC3F
FC3F
FC3F
FC00
FC00
FC07
FC3F
FC3F
FC3F
FFFF
7FFE
03C0
03C0
03C0
0780
ENDCHAR
STARTCHAR egrave
ENCODING 232
SWIDTH 600 0
DWIDTH 17 0
BBX 16 21 0 0
BITMAP
0600
0780
0780
03C0
01C0
01C0
0000
7FFF
FFFF
FFFF
FC00
FC00
FFC0
FFC0
FFC0
FC00
FC00
FC00
FFFF
FFFF
7FFF
ENDCHAR
STARTCHAR eacute
ENCODING 233
SWIDTH 600 0
DWIDTH 17 0
BBX 16 21 0 0
BITMAP
0060
01E0
01E0
03C0
0380
0380
0000
7FFF
FFFF
FFFF
FC00
FC00
FFC0
FFC0
FFC0
FC00
FC00
FC00
FFFF
FFFF
7FFF
ENDCHAR
STARTCHAR ecircumflex
ENCODING 234
SWIDTH 600 0
DWIDTH 17 0
BBX 16 21 0 0
BITMAP
0180
03C0
0670
0670
1C38
0000
0000
7FFF
FFFF
FFFF
FC00
FC00
FFC0
FFC0
FFC0
FC00
FC00
FC00
FFFF
FFFF
7FFF
ENDCHAR
STARTCHAR edieresis
ENCODING 235
SWIDTH 600 0
DWIDTH 17 0
BBX 16 21 0 0
BITMAP
3C3C
3C3C
3C3C
3C3C
0000
0000
0000
3FFF
FFFF
FFFF
FC00
FC00
FFC0
FFC0
FFC0
FC00
FC00
FC00
FFFF
FFFF
3FFF
ENDCHAR
STARTCHAR igrave
ENCODING 236
SWIDTH 550 0
DWIDTH 15 0
BBX 14 21 0 0
BITMAP
0E00
0F80
0F80
07C0
01C0
01C0
0000
FFFC
FFFC
FFFC
0FC0
0FC0
0FC0
0FC0
0FC0
0FC0
0FC0
0FC0
FFFC
FFFC
FFFC
ENDCHAR
STARTCHAR iacute
ENCODING 237
SWIDTH 550 0
DWIDTH 15 0
BBX 14 21 0 0
BITMAP
01C0
07C0
07C0
0F80
0E00
0E00
0000
FFFC
FFFC
FFFC
0FC0
0FC0
0FC0
0FC0
0FC0
0FC0
0FC0
0FC0
FFFC
FFFC
FFFC
ENDCHAR
STARTCHAR icircumflex
ENCODING 238
SWIDTH 550 0
DWIDTH 15 0
BBX 14 21 0 0
BITMAP
0780
0FC0
1CE0
1CE0
7038
0000
0000
FFFC
FFFC
FFFC
0FC0
0FC0
0FC0
0FC0
0FC0
0FC0
0FC0
0FC0
FFFC
FFFC
FFFC
ENDCHAR
STARTCHAR idieresis
ENCODING 239
SWIDTH 550 0
DWIDTH 15 0
BBX 14 21 0 0
BITMAP
78F0
78F0
78F0
78F0
0000
0000
0000
FFFC
FFFC
FFFC
0FC0
0FC0
0FC0
0FC0
0FC0
0FC0
0FC0
0FC0
FFFC
FFFC
FFFC
ENDCHAR
STARTCHAR eth
ENCODING 240
SWIDTH 650 0
DWIDTH 18 0
BBX 17 14 0 0
BITMAP
7FFC00
7FFF00
7FFF00
7E3F80
7E1F80
FF1F80
FF1F80
FF1F80
7E1F80
7E1F80
7E3F80
7FFF00
7FFF00
7FFC00
ENDCHAR
STARTCHAR ntilde
ENCODING 241
SWIDTH 600 0
DWIDTH 17 0
BBX 16 21 0 0
BITMAP
0E38
0EB8
1FF8
1DF8
1CE0
1CE0
0000
FC3F
FE3F
FE3F
FF3F
FFFF
FFFF
FFFF
FDFF
FCFF
FCFF
FC3F
FC3F
FC3F
FC3F
ENDCHAR
STARTCHAR ograve
ENCODING 242
SWIDTH 600 0
DWIDTH 17 0
BBX 16 21 0 0
BITMAP
0600
0780
0780
03C0
01C0
01C0
0000
7FFE
FFFF
FFFF
FC3F
FC3F
FC3F
FC3F
FC3F
FC3F
FC3F
FC3F
FFFF
FFFF
7FFE
ENDCHAR
STARTCHAR oacute
ENCODING 243
SWIDTH 600 0
DWIDTH 17 0
BBX 16 21 0 0
BITMAP
0070
01F0
01F0
03C0
0380
0380
0000
7FFE
FFFF
FFFF
FC3F
FC3F
FC3F
FC3F
FC3F
FC3F
FC3F
FC3F
FFFF
FFFF
7FFE
ENDCHAR
STARTCHAR ocircumflex
ENCODING 244
SWIDTH 600 0
DWIDTH 17 0
BBX 16 21 0 0
BITMAP
0180
03C0
0660
0660
1C38
0000
0000
7FFE
FFFF
FFFF
FC3F
FC3F
FC3F
FC3F
FC3F
FC3F
FC3F
FC3F
FFFF
FFFF
7FFE
ENDCHAR
STARTCHAR otilde
ENCODING 245
SWIDTH 600 0
DWIDTH 17 0
BBX 16 21 0 0
BITMAP
0E38
0EB8
1FF8
1DF8
1C70
1C70
0000
7FFE
FFFF
FFFF
FC3F
FC3F
FC3F
FC3F
FC3F
FC3F
FC3F
FC3F
FFFF
FFFF
7FFE
ENDCHAR
STARTCHAR odieresis
ENCODING 246
SWIDTH 600 0
DWIDTH 17 0
BBX 16 21 0 0
BITMAP
3C3C
3C3C
3C3C
3C3C
0000
0000
0000
3FFC
FFFF
FFFF
FC3F
FC3F
FC3F
FC3F
FC3F
FC3F
FC3F
FC3F
FFFF
FFFF
3FFC
ENDCHAR
STARTCHAR divide
ENCODING 247
SWIDTH 500 0
DWIDTH 14 0
BBX 13 14 0 0
BITMAP
0F00
0F00
0F00
0F00
0000
FFF8
FFF8
FFF8
0000
0000
0F00
0F00
0F00
0F00
ENDCHAR
STARTCHAR oslash
ENCODING 248
SWIDTH 600 0
DWIDTH 17 0
BBX 16 20 0 -3
BITMAP
0007
000F
000F
7FFE
FFFF
FFFF
FC7F
FDFF
FDFF
FDFF
FFBF
FFBF
FFBF
FE3F
FFFF
FFFF
7FFE
F000
F000
E000
ENDCHAR
STARTCHAR ugrave
ENCODING 249
SWIDTH 600 0
DWIDTH 17 0
BBX 16 21 0 0
BITMAP
0600
0780
0780
03C0
01C0
01C0
0000
FC3F
FC3F
FC3F
FC3F
FC3F
FC3F
FC3F
FC3F
FC3F
FC3F
FC3F
FFFF
FFFF
7FFE
ENDCHAR
STARTCHAR uacute
ENCODING 250
SWIDTH 600 0
DWIDTH 17 0
BBX 16 21 0 0
BITMAP
0070
01F0
01F0
03C0
0380
0380
0000
FC3F
FC3F
FC3F
FC3F
FC3F
FC3F
FC3F
FC3F
FC3F
FC3F
FC3F
FFFF
FFFF
7FFE
ENDCHAR
STARTCHAR ucircumflex
ENCODING 251
SWIDTH 600 0
DWIDTH 17 0
BBX 16 21 0 0
BITMAP
0180
03C0
0660
0660
1C38
0000
0000
FC3F
FC3F
FC3F
FC3F
FC3F
FC3F
FC3F
FC3F
FC3F
FC3F
FC3F
FFFF
FFFF
7FFE
ENDCHAR
STARTCHAR udieresis
ENCODING 252
SWIDTH 600 0
DWIDTH 17 0
BBX 16 21 0 0
BITMAP
3C3C
3C3C
3C3C
3C3C
0000
0000
0000
FC3F
FC3F
FC3F
FC3F
FC3F
FC3F
FC3F
FC3F
FC3F
FC3F
FC3F
FFFF
FFFF
3FFC
ENDCHAR
STARTCHAR yacute
ENCODING 253
SWIDTH 650 0
DWIDTH 18 0
BBX 18 21 0 0
BITMAP
007000
01F000
01F000
03E000
038000
038000
000000
FC0FC0
FC0FC0
FC0FC0
FC0FC0
FF3FC0
FF3FC0
7FFF80
1FFE00
1FFE00
03F000
03F000
03F000
03F000
03F000
ENDCHAR
STARTCHAR thorn
ENCODING 254
SWIDTH 600 0
DWIDTH 17 0
BBX 16 20 0 -3
BITMAP
FC00
FC00
FC00
FC00
FFFE
FFFF
FFFF
FC3F
FC3F
FC3F
FC3F
FC3F
FC3F
FFFF
FFFF
FFFE
FC00
FC00
FC00
FC00
ENDCHAR
STARTCHAR ydieresis
ENCODING 255
SWIDTH 650 0
DWIDTH 18 0
BBX 18 21 0 0
BITMAP
1E3C00
1E3C00
1E3C00
1E3C00
000000
000000
000000
FC0FC0
FC0FC0
FC0FC0
FC0FC0
FE3FC0
FE3FC0
7FFF00
1FFC00
1FFC00
03F000
03F000
03F000
03F000
03F000
ENDCHAR
STARTCHAR OE
ENCODING 338
SWIDTH 700 0
DWIDTH 20 0
BBX 18 14 0 0
BITMAP
7FFFC0
FFFFC0
FFFFC0
F1E000
F1E000
F1FC00
F1FC00
F1FC00
F1E000
F1E000
F1E000
FFFFC0
FFFFC0
7FFFC0
ENDCHAR
STARTCHAR oe
ENCODING 339
SWIDTH 700 0
DWIDTH 20 0
BBX 18 14 0 0
BITMAP
7FFFC0
FFFFC0
FFFFC0
F1E000
F1E000
F1FC00
F1FC00
F1FC00
F1E000
F1E000
F1E000
FFFFC0
FFFFC0
7FFFC0
ENDCHAR
STARTCHAR Scaron
ENCODING 352
SWIDTH 600 0
DWIDTH 17 0
BBX 16 21 0 0
BITMAP
1C38
0660
0660
03C0
0180
0000
0000
7FFF
FFFF
FFFF
FC00
FC00
FFFE
FFFF
7FFF
003F
003F
003F
FFFF
FFFF
FFFE
ENDCHAR
STARTCHAR scaron
ENCODING 353
SWIDTH 600 0
DWIDTH 17 0
BBX 16 21 0 0
BITMAP
1C38
0660
0660
03C0
0180
0000
0000
7FFF
FFFF
FFFF
FC00
FC00
FFFE
FFFF
7FFF
003F
003F
003F
FFFF
FFFF
FFFE
ENDCHAR
STARTCHAR Ydieresis
ENCODING 376
SWIDTH 650 0
DWIDTH 18 0
BBX 18 21 0 0
BITMAP
1E3C00
1E3C00
1E3C00
1E3C00
000000
000000
000000
FC0FC0
FC0FC0
FC0FC0
FC0FC0
FE3FC0
FE3FC0
7FFF00
1FFC00
1FFC00
03F000
03F000
03F000
03F000
03F000
ENDCHAR
STARTCHAR florin
ENCODING 402
SWIDTH 450 0
DWIDTH 13 0
BBX 11 17 0 -3
BITMAP
3FE0
7FE0
7FE0
7E00
7E00
FF00
FF00
FF00
7E00
7E00
7E00
7E00
7E00
7E00
7E00
FE00
FC00
ENDCHAR
STARTCHAR circumflex
ENCODING 710
SWIDTH 400 0
DWIDTH 11 0
BBX 10 5 0 16
BITMAP
0C00
1E00
7300
7300
E1C0
ENDCHAR
STARTCHAR tilde
ENCODING 732
SWIDTH 400 0
DWIDTH 11 0
BBX 10 6 0 15
BITMAP
71C0
75C0
FFC0
EFC0
E380
E380
ENDCHAR
STARTCHAR endash
ENCODING 8211
SWIDTH 250 0
DWIDTH 7 0
BBX 6 3 0 6
BITMAP
FC
FC
FC
ENDCHAR
STARTCHAR emdash
ENCODING 8212
SWIDTH 600 0
DWIDTH 17 0
BBX 15 3 0 6
BITMAP
FFFE
FFFE
FFFE
ENDCHAR
STARTCHAR quoteleft
ENCODING 8216
SWIDTH 250 0
DWIDTH 7 0
BBX 6 6 0 11
BITMAP
E0
E0
E0
FC
FC
FC
ENDCHAR
STARTCHAR quoteright
ENCODING 8217
SWIDTH 250 0
DWIDTH 7 0
BBX 6 6 0 11
BITMAP
FC
FC
FC
1C
1C
1C
ENDCHAR
STARTCHAR quotesinglbase
ENCODING 8218
SWIDTH 200 0
DWIDTH 6 0
BBX 4 6 0 -3
BITMAP
F0
F0
F0
F0
F0
F0
ENDCHAR
STARTCHAR quotedblleft
ENCODING 8220
SWIDTH 500 0
DWIDTH 14 0
BBX 13 6 0 11
BITMAP
E1C0
E1C0
E1C0
FDF8
FDF8
FDF8
ENDCHAR
STARTCHAR quotedblright
ENCODING 8221
SWIDTH 500 0
DWIDTH 14 0
BBX 13 6 0 11
BITMAP
FDF8
FDF8
FDF8
1C38
1C38
1C38
ENDCHAR
STARTCHAR quotedblbase
ENCODING 8222
SWIDTH 400 0
DWIDTH 11 0
BBX 10 6 0 -3
BITMAP
F3C0
F3C0
F3C0
F3C0
F3C0
F3C0
ENDCHAR
STARTCHAR dagger
ENCODING 8224
SWIDTH 600 0
DWIDTH 17 0
BBX 16 14 0 0
BITMAP
03C0
03C0
03C0
FFFF
FFFF
FFFF
03C0
03C0
03C0
03C0
03C0
03C0
03C0
03C0
ENDCHAR
STARTCHAR daggerdbl
ENCODING 8225
SWIDTH 600 0
DWIDTH 17 0
BBX 16 14 0 0
BITMAP
03C0
03C0
03C0
FFFF
FFFF
FFFF
03C0
03C0
FFFF
FFFF
FFFF
03C0
03C0
03C0
ENDCHAR
STARTCHAR bullet
ENCODING 8226
SWIDTH 400 0
DWIDTH 11 0
BBX 10 12 0 1
BITMAP
0800
1E00
1E00
3F00
FFC0
FFC0
FFC0
3F00
3F00
1E00
1E00
0800
ENDCHAR
STARTCHAR ellipsis
ENCODING 8230
SWIDTH 450 0
DWIDTH 13 0
BBX 11 3 0 0
BITMAP
EEE0
EEE0
EEE0
ENDCHAR
STARTCHAR perthousand
ENCODING 8240
SWIDTH 950 0
DWIDTH 27 0
BBX 25 14 0 0
BITMAP
FE1F8000
FE3F8000
EE3F8000
FEFF0000
01FC0000
07FC0000
07F80000
0FF00000
1FF00000
1FC00000
7FBFBF80
FE3BBB80
FE3BBB80
FC3FBF80
ENDCHAR
STARTCHAR guilsinglleft
ENCODING 8249
SWIDTH 300 0
DWIDTH 8 0
BBX 7 12 0 1
BITMAP
0E
1E
1E
78
F8
F0
F0
F8
78
1E
1E
0E
ENDCHAR
STARTCHAR guilsinglright
ENCODING 8250
SWIDTH 300 0
DWIDTH 8 0
BBX 7 12 0 1
BITMAP
E0
F0
F0
78
7E
1E
1E
7E
78
F0
F0
E0
ENDCHAR
STARTCHAR trademark
ENCODING 8482
SWIDTH 750 0
DWIDTH 21 0
BBX 20 7 0 7
BITMAP
FFB870
FFBCF0
FFBCF0
1C3FF0
1C3B70
1C3870
1C3870
ENDCHAR
STARTCHAR periodcentered.dup1
ENCODING 8729
SWIDTH 250 0
DWIDTH 7 0
BBX 6 6 0 4
BITMAP
FC
FC
FC
FC
FC
FC
ENDCHAR
STARTCHAR .null
ENCODING 57344
SWIDTH 0 0
DWIDTH 0 0
BBX 1 1 0 0
BITMAP
00
ENDCHAR
STARTCHAR nonmarkingreturn
ENCODING 57345
SWIDTH 500 0
DWIDTH 14 0
BBX 1 1 0 0
BITMAP
00
ENDCHAR
STARTCHAR .notdef
ENCODING -1
SWIDTH 736 0
DWIDTH 21 0
BBX 20 20 0 0
BITMAP
219FC0
7FFFF0
7FFF70
7E0060
7C0060
FC1C70
781FF0
789FF0
788FF0
798020
780020
7800F0
798FF0
F18FF0
F380B0
638030
7FFC60
7FFFF0
3FFFF0
49E260
ENDCHAR
ENDFONT
